<svg width="682" height="193" viewBox="0 0 682 193" fill="none" xmlns="http://www.w3.org/2000/svg">
<path d="M59.6519 189.889V2.34432H116.15L131.622 73.377L134.67 158.944H140.765L143.578 73.377L159.285 2.34432H215.549V189.889H180.384V132.219L187.182 33.2892H180.853L171.007 134.564L156.472 189.889H118.729L104.428 134.564L94.3477 33.2892H88.2525L94.8165 132.219V189.889H59.6519Z" fill="black"/>
<path d="M230.423 189.889V2.34432H311.537V33.2892H265.588V83.0033H309.192V109.948H265.588V158.944H311.537V189.889H230.423Z" fill="black"/>
<path d="M322.212 189.889V2.34432H367.457C384.961 2.34432 397.581 5.89986 405.318 13.0109C413.132 20.0439 417.313 31.7264 417.86 48.0584C418.016 52.4344 418.094 56.2635 418.094 59.5455C418.172 62.8276 418.172 66.1096 418.094 69.3916C418.094 72.6737 418.016 76.5027 417.86 80.8788C417.547 91.0375 415.828 99.3598 412.702 105.846C409.655 112.332 404.888 117.294 398.402 120.732L420.438 189.889H383.164L361.662 111.5H357.376V189.889H322.212ZM357.376 80.6479H367.457C372.38 80.6479 376.092 79.5148 378.592 77.2487C381.093 74.9825 382.461 71.8177 382.695 67.7542C382.929 63.9252 383.086 63.9398 383.164 59.7982C383.164 56.6562 383.242 59.3978 383.164 55.2562C383.086 51.0364 382.929 50.012 382.695 46.1829C382.461 42.0413 381.093 38.8765 378.592 36.6885C376.092 34.4223 372.38 33.2892 367.457 33.2892H357.376V80.6479Z" fill="black"/>
<path d="M479.022 192.234C467.222 192.234 457.767 190.671 450.656 187.545C443.544 184.341 438.348 179.301 435.066 172.424C431.784 165.469 429.947 156.366 429.557 145.113C429.322 138.549 429.127 131.086 428.971 122.725C428.893 114.285 428.853 105.611 428.853 96.7029C428.853 87.7945 428.893 79.1987 428.971 70.9154C429.127 62.6322 429.322 55.3258 429.557 48.9961C430.026 37.1183 431.94 27.5847 435.3 20.3955C438.739 13.2063 443.974 8.00973 451.007 4.80584C458.118 1.60195 467.456 0 479.022 0C495.432 0 507.388 3.63368 514.89 10.9011C522.47 18.0903 526.768 30.0853 527.783 46.8862C528.018 50.4809 528.135 54.7788 528.135 59.78C528.135 64.703 528.018 69.0009 527.783 72.6737H492.619C492.853 68.2976 492.97 62.9057 492.97 56.4979C492.97 50.012 492.853 44.6201 492.619 40.3222C492.384 36.5713 491.095 33.68 488.751 31.6482C486.406 29.6165 483.163 28.6006 479.022 28.6006C474.489 28.6006 471.012 29.6165 468.59 31.6482C466.245 33.68 464.956 36.5713 464.721 40.3222C464.253 48.5273 463.901 57.3966 463.667 66.9301C463.432 76.3855 463.315 86.0753 463.315 95.9996C463.315 105.924 463.432 115.653 463.667 125.186C463.901 134.642 464.253 143.472 464.721 151.677C464.956 155.506 466.245 158.475 468.59 160.585C471.012 162.617 474.489 163.633 479.022 163.633C483.476 163.633 487.031 162.617 489.688 160.585C492.423 158.475 493.947 155.506 494.26 151.677C494.416 149.88 494.494 147.535 494.494 144.644C494.572 141.675 494.572 138.744 494.494 135.853C494.494 132.883 494.416 130.5 494.26 128.703H481.366V98.2267H528.487C528.877 105.338 529.034 113.152 528.956 121.67C528.877 130.109 528.643 137.924 528.252 145.113C527.471 161.992 523.251 174.065 515.593 181.333C508.013 188.6 495.823 192.234 479.022 192.234Z" fill="black"/>
<path d="M541.731 189.889V2.34432H622.845V33.2892H576.896V83.0033H620.5V109.948H576.896V158.944H622.845V189.889H541.731Z" fill="black"/>
<path d="M625.583 152L603.478 130.14L622.145 111.474H481.162V80.5263H622.145L603.478 61.8596L625.583 40L681.338 96L625.583 152Z" fill="#00DC55"/>
<rect x="483.162" y="53" width="50" height="22" fill="white"/>
<rect x="59.6519" y="80.5625" width="502.698" height="30.7812" fill="#00DC55"/>
<path fill-rule="evenodd" clip-rule="evenodd" d="M83.6621 81.5492C80.979 81.2225 78.349 80.5293 75.7722 79.4694C72.0414 77.9315 68.7872 75.7737 66.0095 72.9961L19.9593 27.1652L0.662114 46.4624L49.7823 95.5826L0.662109 144.703L19.9593 164L66.0095 118.169C68.7872 115.391 72.0414 113.237 75.7722 111.705C78.349 110.641 80.979 109.945 83.6621 109.617V81.5492Z" fill="#00DC55"/>
</svg>
